<mxfile host="app.diagrams.net" modified="2024-03-18T13:23:10.105Z" agent="Mozilla/5.0 (Windows NT 10.0; Win64; x64) AppleWebKit/537.36 (KHTML, like Gecko) Chrome/122.0.0.0 Safari/537.36" etag="PxwHB5K0wApNDC9wKFMg" version="24.0.7" type="device">
  <diagram name="Page-1" id="QKr3hlFgz9Zs6SYv5Mjf">
    <mxGraphModel dx="1050" dy="557" grid="1" gridSize="10" guides="1" tooltips="1" connect="1" arrows="1" fold="1" page="1" pageScale="1" pageWidth="850" pageHeight="1100" math="0" shadow="0">
      <root>
        <mxCell id="0" />
        <mxCell id="1" parent="0" />
        <mxCell id="LEhVkkT9aKf8iro3H-op-1" value="ADMIN" style="rounded=0;whiteSpace=wrap;html=1;" vertex="1" parent="1">
          <mxGeometry x="30" y="65" width="120" height="30" as="geometry" />
        </mxCell>
        <mxCell id="LEhVkkT9aKf8iro3H-op-4" style="edgeStyle=orthogonalEdgeStyle;rounded=0;orthogonalLoop=1;jettySize=auto;html=1;exitX=0.5;exitY=1;exitDx=0;exitDy=0;" edge="1" parent="1" source="LEhVkkT9aKf8iro3H-op-2">
          <mxGeometry relative="1" as="geometry">
            <mxPoint x="260" y="160" as="targetPoint" />
            <Array as="points">
              <mxPoint x="260" y="120" />
            </Array>
          </mxGeometry>
        </mxCell>
        <mxCell id="LEhVkkT9aKf8iro3H-op-2" value="" style="shape=lineEllipse;perimeter=ellipsePerimeter;whiteSpace=wrap;html=1;backgroundOutline=1;" vertex="1" parent="1">
          <mxGeometry x="220" y="40" width="100" height="80" as="geometry" />
        </mxCell>
        <mxCell id="LEhVkkT9aKf8iro3H-op-3" value="LOGIN" style="text;html=1;align=center;verticalAlign=middle;whiteSpace=wrap;rounded=0;" vertex="1" parent="1">
          <mxGeometry x="230" y="80" width="60" height="30" as="geometry" />
        </mxCell>
        <mxCell id="LEhVkkT9aKf8iro3H-op-13" style="edgeStyle=orthogonalEdgeStyle;rounded=0;orthogonalLoop=1;jettySize=auto;html=1;exitX=0.5;exitY=1;exitDx=0;exitDy=0;entryX=0.5;entryY=0;entryDx=0;entryDy=0;" edge="1" parent="1" source="LEhVkkT9aKf8iro3H-op-5" target="LEhVkkT9aKf8iro3H-op-11">
          <mxGeometry relative="1" as="geometry" />
        </mxCell>
        <mxCell id="LEhVkkT9aKf8iro3H-op-5" value="" style="shape=lineEllipse;perimeter=ellipsePerimeter;whiteSpace=wrap;html=1;backgroundOutline=1;" vertex="1" parent="1">
          <mxGeometry x="210" y="160" width="100" height="80" as="geometry" />
        </mxCell>
        <mxCell id="LEhVkkT9aKf8iro3H-op-6" value="USER REPORT" style="text;html=1;align=center;verticalAlign=middle;whiteSpace=wrap;rounded=0;" vertex="1" parent="1">
          <mxGeometry x="230" y="200" width="60" height="30" as="geometry" />
        </mxCell>
        <mxCell id="LEhVkkT9aKf8iro3H-op-7" value="" style="shape=lineEllipse;perimeter=ellipsePerimeter;whiteSpace=wrap;html=1;backgroundOutline=1;" vertex="1" parent="1">
          <mxGeometry x="210" y="500" width="100" height="80" as="geometry" />
        </mxCell>
        <mxCell id="LEhVkkT9aKf8iro3H-op-8" value="PAYMENT REPORT" style="text;html=1;align=center;verticalAlign=middle;whiteSpace=wrap;rounded=0;" vertex="1" parent="1">
          <mxGeometry x="230" y="540" width="60" height="30" as="geometry" />
        </mxCell>
        <mxCell id="LEhVkkT9aKf8iro3H-op-16" style="edgeStyle=orthogonalEdgeStyle;rounded=0;orthogonalLoop=1;jettySize=auto;html=1;exitX=0.5;exitY=1;exitDx=0;exitDy=0;entryX=0.5;entryY=0;entryDx=0;entryDy=0;" edge="1" parent="1" source="LEhVkkT9aKf8iro3H-op-9" target="LEhVkkT9aKf8iro3H-op-7">
          <mxGeometry relative="1" as="geometry" />
        </mxCell>
        <mxCell id="LEhVkkT9aKf8iro3H-op-9" value="" style="shape=lineEllipse;perimeter=ellipsePerimeter;whiteSpace=wrap;html=1;backgroundOutline=1;" vertex="1" parent="1">
          <mxGeometry x="210" y="390" width="100" height="80" as="geometry" />
        </mxCell>
        <mxCell id="LEhVkkT9aKf8iro3H-op-10" value="ORDER REPORT" style="text;html=1;align=center;verticalAlign=middle;whiteSpace=wrap;rounded=0;" vertex="1" parent="1">
          <mxGeometry x="230" y="430" width="60" height="30" as="geometry" />
        </mxCell>
        <mxCell id="LEhVkkT9aKf8iro3H-op-15" style="edgeStyle=orthogonalEdgeStyle;rounded=0;orthogonalLoop=1;jettySize=auto;html=1;exitX=0.5;exitY=1;exitDx=0;exitDy=0;entryX=0.5;entryY=0;entryDx=0;entryDy=0;" edge="1" parent="1" source="LEhVkkT9aKf8iro3H-op-11" target="LEhVkkT9aKf8iro3H-op-9">
          <mxGeometry relative="1" as="geometry" />
        </mxCell>
        <mxCell id="LEhVkkT9aKf8iro3H-op-11" value="" style="shape=lineEllipse;perimeter=ellipsePerimeter;whiteSpace=wrap;html=1;backgroundOutline=1;" vertex="1" parent="1">
          <mxGeometry x="210" y="270" width="100" height="80" as="geometry" />
        </mxCell>
        <mxCell id="LEhVkkT9aKf8iro3H-op-12" value="ITEM REPORT" style="text;html=1;align=center;verticalAlign=middle;whiteSpace=wrap;rounded=0;" vertex="1" parent="1">
          <mxGeometry x="230" y="310" width="60" height="30" as="geometry" />
        </mxCell>
        <mxCell id="LEhVkkT9aKf8iro3H-op-17" style="edgeStyle=orthogonalEdgeStyle;rounded=0;orthogonalLoop=1;jettySize=auto;html=1;exitX=1;exitY=0.25;exitDx=0;exitDy=0;entryX=-0.02;entryY=0.415;entryDx=0;entryDy=0;entryPerimeter=0;" edge="1" parent="1" source="LEhVkkT9aKf8iro3H-op-1" target="LEhVkkT9aKf8iro3H-op-2">
          <mxGeometry relative="1" as="geometry" />
        </mxCell>
        <mxCell id="LEhVkkT9aKf8iro3H-op-19" value="" style="endArrow=classic;html=1;rounded=0;exitX=0;exitY=0.605;exitDx=0;exitDy=0;exitPerimeter=0;entryX=1;entryY=0.75;entryDx=0;entryDy=0;" edge="1" parent="1" source="LEhVkkT9aKf8iro3H-op-2" target="LEhVkkT9aKf8iro3H-op-1">
          <mxGeometry width="50" height="50" relative="1" as="geometry">
            <mxPoint x="230" y="180" as="sourcePoint" />
            <mxPoint x="140" y="110" as="targetPoint" />
          </mxGeometry>
        </mxCell>
        <mxCell id="LEhVkkT9aKf8iro3H-op-20" value="REQUEST TO LOGIN" style="text;html=1;align=center;verticalAlign=middle;whiteSpace=wrap;rounded=0;" vertex="1" parent="1">
          <mxGeometry x="150" y="35" width="60" height="30" as="geometry" />
        </mxCell>
        <mxCell id="LEhVkkT9aKf8iro3H-op-23" value="RESPONSE" style="text;html=1;align=center;verticalAlign=middle;whiteSpace=wrap;rounded=0;" vertex="1" parent="1">
          <mxGeometry x="160" y="95" width="60" height="30" as="geometry" />
        </mxCell>
        <mxCell id="LEhVkkT9aKf8iro3H-op-24" value="" style="endArrow=classic;html=1;rounded=0;exitX=0;exitY=0.605;exitDx=0;exitDy=0;exitPerimeter=0;entryX=1;entryY=0.75;entryDx=0;entryDy=0;" edge="1" parent="1">
          <mxGeometry width="50" height="50" relative="1" as="geometry">
            <mxPoint x="390" y="90" as="sourcePoint" />
            <mxPoint x="320" y="90" as="targetPoint" />
          </mxGeometry>
        </mxCell>
        <mxCell id="LEhVkkT9aKf8iro3H-op-25" value="" style="endArrow=classic;html=1;rounded=0;exitX=0;exitY=0.605;exitDx=0;exitDy=0;exitPerimeter=0;entryX=1;entryY=0.75;entryDx=0;entryDy=0;" edge="1" parent="1">
          <mxGeometry width="50" height="50" relative="1" as="geometry">
            <mxPoint x="380" y="214.5" as="sourcePoint" />
            <mxPoint x="310" y="214.5" as="targetPoint" />
          </mxGeometry>
        </mxCell>
        <mxCell id="LEhVkkT9aKf8iro3H-op-26" value="" style="endArrow=classic;html=1;rounded=0;exitX=0;exitY=0.605;exitDx=0;exitDy=0;exitPerimeter=0;entryX=1;entryY=0.75;entryDx=0;entryDy=0;" edge="1" parent="1">
          <mxGeometry width="50" height="50" relative="1" as="geometry">
            <mxPoint x="382" y="324.5" as="sourcePoint" />
            <mxPoint x="312" y="324.5" as="targetPoint" />
          </mxGeometry>
        </mxCell>
        <mxCell id="LEhVkkT9aKf8iro3H-op-27" value="" style="endArrow=classic;html=1;rounded=0;exitX=0;exitY=0.605;exitDx=0;exitDy=0;exitPerimeter=0;entryX=1;entryY=0.75;entryDx=0;entryDy=0;" edge="1" parent="1">
          <mxGeometry width="50" height="50" relative="1" as="geometry">
            <mxPoint x="384" y="440" as="sourcePoint" />
            <mxPoint x="314" y="440" as="targetPoint" />
          </mxGeometry>
        </mxCell>
        <mxCell id="LEhVkkT9aKf8iro3H-op-28" value="" style="endArrow=classic;html=1;rounded=0;exitX=0;exitY=0.605;exitDx=0;exitDy=0;exitPerimeter=0;entryX=1;entryY=0.75;entryDx=0;entryDy=0;" edge="1" parent="1">
          <mxGeometry width="50" height="50" relative="1" as="geometry">
            <mxPoint x="384" y="554.5" as="sourcePoint" />
            <mxPoint x="314" y="554.5" as="targetPoint" />
          </mxGeometry>
        </mxCell>
        <mxCell id="LEhVkkT9aKf8iro3H-op-29" value="" style="endArrow=classic;html=1;rounded=0;exitX=0;exitY=0.605;exitDx=0;exitDy=0;exitPerimeter=0;" edge="1" parent="1">
          <mxGeometry width="50" height="50" relative="1" as="geometry">
            <mxPoint x="320" y="70" as="sourcePoint" />
            <mxPoint x="390" y="70" as="targetPoint" />
          </mxGeometry>
        </mxCell>
        <mxCell id="LEhVkkT9aKf8iro3H-op-30" value="" style="endArrow=classic;html=1;rounded=0;exitX=0;exitY=0.605;exitDx=0;exitDy=0;exitPerimeter=0;" edge="1" parent="1">
          <mxGeometry width="50" height="50" relative="1" as="geometry">
            <mxPoint x="310" y="190" as="sourcePoint" />
            <mxPoint x="380" y="190" as="targetPoint" />
          </mxGeometry>
        </mxCell>
        <mxCell id="LEhVkkT9aKf8iro3H-op-31" value="" style="endArrow=classic;html=1;rounded=0;exitX=0;exitY=0.605;exitDx=0;exitDy=0;exitPerimeter=0;" edge="1" parent="1">
          <mxGeometry width="50" height="50" relative="1" as="geometry">
            <mxPoint x="313" y="306" as="sourcePoint" />
            <mxPoint x="383" y="306" as="targetPoint" />
          </mxGeometry>
        </mxCell>
        <mxCell id="LEhVkkT9aKf8iro3H-op-32" value="" style="endArrow=classic;html=1;rounded=0;exitX=0;exitY=0.605;exitDx=0;exitDy=0;exitPerimeter=0;" edge="1" parent="1">
          <mxGeometry width="50" height="50" relative="1" as="geometry">
            <mxPoint x="312" y="420" as="sourcePoint" />
            <mxPoint x="382" y="420" as="targetPoint" />
          </mxGeometry>
        </mxCell>
        <mxCell id="LEhVkkT9aKf8iro3H-op-33" value="" style="endArrow=classic;html=1;rounded=0;exitX=0;exitY=0.605;exitDx=0;exitDy=0;exitPerimeter=0;" edge="1" parent="1">
          <mxGeometry width="50" height="50" relative="1" as="geometry">
            <mxPoint x="314" y="533" as="sourcePoint" />
            <mxPoint x="384" y="533" as="targetPoint" />
          </mxGeometry>
        </mxCell>
        <mxCell id="LEhVkkT9aKf8iro3H-op-34" value="AdminMst" style="html=1;dashed=0;whiteSpace=wrap;shape=partialRectangle;right=0;left=0;" vertex="1" parent="1">
          <mxGeometry x="410" y="65" width="140" height="30" as="geometry" />
        </mxCell>
        <mxCell id="LEhVkkT9aKf8iro3H-op-36" value="UserMst" style="html=1;dashed=0;whiteSpace=wrap;shape=partialRectangle;right=0;left=0;" vertex="1" parent="1">
          <mxGeometry x="410" y="185" width="140" height="30" as="geometry" />
        </mxCell>
        <mxCell id="LEhVkkT9aKf8iro3H-op-37" value="ItemMst" style="html=1;dashed=0;whiteSpace=wrap;shape=partialRectangle;right=0;left=0;" vertex="1" parent="1">
          <mxGeometry x="410" y="295" width="140" height="30" as="geometry" />
        </mxCell>
        <mxCell id="LEhVkkT9aKf8iro3H-op-38" value="OrderMst" style="html=1;dashed=0;whiteSpace=wrap;shape=partialRectangle;right=0;left=0;" vertex="1" parent="1">
          <mxGeometry x="410" y="415" width="140" height="30" as="geometry" />
        </mxCell>
        <mxCell id="LEhVkkT9aKf8iro3H-op-39" value="PaymentMst" style="html=1;dashed=0;whiteSpace=wrap;shape=partialRectangle;right=0;left=0;" vertex="1" parent="1">
          <mxGeometry x="410" y="525" width="140" height="30" as="geometry" />
        </mxCell>
        <mxCell id="LEhVkkT9aKf8iro3H-op-40" value="CHECK DETAIL" style="text;html=1;align=center;verticalAlign=middle;whiteSpace=wrap;rounded=0;" vertex="1" parent="1">
          <mxGeometry x="320" y="35" width="60" height="30" as="geometry" />
        </mxCell>
        <mxCell id="LEhVkkT9aKf8iro3H-op-51" value="REPLY" style="text;html=1;align=center;verticalAlign=middle;whiteSpace=wrap;rounded=0;" vertex="1" parent="1">
          <mxGeometry x="330" y="95" width="60" height="30" as="geometry" />
        </mxCell>
        <mxCell id="LEhVkkT9aKf8iro3H-op-52" value="REPLY" style="text;html=1;align=center;verticalAlign=middle;whiteSpace=wrap;rounded=0;" vertex="1" parent="1">
          <mxGeometry x="320" y="215" width="60" height="30" as="geometry" />
        </mxCell>
        <mxCell id="LEhVkkT9aKf8iro3H-op-53" value="REPLY" style="text;html=1;align=center;verticalAlign=middle;whiteSpace=wrap;rounded=0;" vertex="1" parent="1">
          <mxGeometry x="320" y="325" width="60" height="30" as="geometry" />
        </mxCell>
        <mxCell id="LEhVkkT9aKf8iro3H-op-54" value="REPLY" style="text;html=1;align=center;verticalAlign=middle;whiteSpace=wrap;rounded=0;" vertex="1" parent="1">
          <mxGeometry x="320" y="445" width="60" height="30" as="geometry" />
        </mxCell>
        <mxCell id="LEhVkkT9aKf8iro3H-op-55" value="REPLY" style="text;html=1;align=center;verticalAlign=middle;whiteSpace=wrap;rounded=0;" vertex="1" parent="1">
          <mxGeometry x="320" y="555" width="60" height="30" as="geometry" />
        </mxCell>
        <mxCell id="LEhVkkT9aKf8iro3H-op-56" value="REQUEST FOR VIEW" style="text;html=1;align=center;verticalAlign=middle;whiteSpace=wrap;rounded=0;" vertex="1" parent="1">
          <mxGeometry x="320" y="155" width="70" height="30" as="geometry" />
        </mxCell>
        <mxCell id="LEhVkkT9aKf8iro3H-op-57" value="REQUEST FOR VIEW" style="text;html=1;align=center;verticalAlign=middle;whiteSpace=wrap;rounded=0;" vertex="1" parent="1">
          <mxGeometry x="315" y="270" width="70" height="30" as="geometry" />
        </mxCell>
        <mxCell id="LEhVkkT9aKf8iro3H-op-58" value="REQUEST FOR VIEW" style="text;html=1;align=center;verticalAlign=middle;whiteSpace=wrap;rounded=0;" vertex="1" parent="1">
          <mxGeometry x="310" y="384" width="70" height="30" as="geometry" />
        </mxCell>
        <mxCell id="LEhVkkT9aKf8iro3H-op-59" value="REQUEST FOR VIEW" style="text;html=1;align=center;verticalAlign=middle;whiteSpace=wrap;rounded=0;" vertex="1" parent="1">
          <mxGeometry x="315" y="495" width="70" height="30" as="geometry" />
        </mxCell>
      </root>
    </mxGraphModel>
  </diagram>
</mxfile>
